<?xml version="1.0" standalone="no"?>
<!DOCTYPE svg PUBLIC "-//W3C//DTD SVG 20010904//EN"
 "http://www.w3.org/TR/2001/REC-SVG-20010904/DTD/svg10.dtd">
<svg version="1.0" xmlns="http://www.w3.org/2000/svg"
 width="32.000000pt" height="32.000000pt" viewBox="0 0 32.000000 32.000000"
 preserveAspectRatio="xMidYMid meet">

<g transform="translate(0.000000,32.000000) scale(0.100000,-0.100000)"
fill="#000000" stroke="none">
<path d="M89 285 c-36 -19 -49 -33 -62 -67 -22 -56 -21 -75 3 -125 22 -46 29
-52 80 -70 49 -18 70 -16 119 8 33 15 47 30 62 65 25 59 24 75 -6 133 -21 42
-31 51 -71 65 -61 21 -70 20 -125 -9z m103 -12 c21 -19 24 -62 5 -87 -12 -16
-13 -14 -13 19 0 29 -7 43 -28 61 -26 23 -26 24 -5 24 12 0 31 -7 41 -17z
m-51 -32 c16 -16 29 -37 29 -47 0 -13 -5 -11 -21 10 -16 20 -29 26 -62 26
l-42 1 24 19 c31 26 37 25 72 -9z m129 -17 c0 -22 -51 -74 -72 -74 -19 0 -18
2 6 21 20 16 26 29 26 61 0 40 0 41 20 23 11 -10 20 -24 20 -31z m-127 -33 c5
-5 -7 -9 -28 -8 -29 1 -43 -5 -61 -26 -22 -26 -35 -20 -27 14 9 34 89 47 116
20z m150 -40 c-14 -40 -72 -54 -109 -26 -18 14 -17 14 13 9 26 -5 37 -1 60 22
28 29 46 26 36 -5z m-177 -2 c-20 -16 -26 -29 -26 -60 0 -21 -4 -39 -10 -39
-15 0 -32 39 -25 60 7 23 52 60 73 60 9 0 5 -7 -12 -21z m18 -29 c-5 -24 -1
-35 24 -59 29 -30 31 -41 5 -41 -40 0 -66 67 -43 111 15 27 20 23 14 -11z
m101 -33 c19 1 35 -3 35 -8 0 -9 -33 -29 -49 -29 -17 0 -71 51 -71 68 0 12 6
10 25 -8 18 -16 36 -24 60 -23z"/>
</g>
</svg>
